<svg xmlns="http://www.w3.org/2000/svg" viewBox="0 0 1000 1000"><path fill="#fff" d="M894.7 10H105.3C52.7 10 10 52.7 10 105.3v789.4c0 52.6 42.7 95.3 95.3 95.3h789.4c52.6 0 95.3-42.7 95.3-95.3V105.3c0-52.6-42.7-95.3-95.3-95.3zM777 598.4v72.7c-1.4 14.4-12.6 25.7-26.9 27.5H339.8c-30.4 0-56.3-9.8-77.7-29.4-21.4-19.6-32.1-43.2-32.1-71.1 0-22.1 7.2-41.8 21.7-59.1 14.5-17.3 32.8-29.3 55-36.2l358.5-102.5H230.1v-69.4c.2-14.6 10.5-26.6 24.2-29.6h412.9c30.4 0 56.3 9.7 77.7 29.1C766.3 349.8 777 373 777 400c0 22.5-7.3 42.3-21.9 59.5-14.6 17.2-33.3 29.1-56.3 35.9l-359 102.9H777z"/></svg>