<svg xmlns="http://www.w3.org/2000/svg" width="1024" height="367" viewBox="0 0 1024 367"><g transform="translate(512 183.5)"><g transform="translate(-512 -183.5)"><path d="M173.528,366c8.352-1.589,16.284-2.959,24.1-4.808,25.512-6.035,47.742-18.164,67.4-35.56,21.413-18.954,36.187-42.137,45.474-68.888a148.4,148.4,0,0,0,7.725-42.826,156.645,156.645,0,0,0-10.069-63.644,160.032,160.032,0,0,0-28.713-47.326c-2.274-2.633-4.611-5.213-6.859-7.868-2.106-2.487-4.044-2.412-6.188.011-8.928,10.088-20.767,15.8-32.6,21.5a14.28,14.28,0,0,1-3.172.717,10.145,10.145,0,0,1,.335-2.677c5.578-13.45,11.407-26.8,16.785-40.329,8.135-20.463,15.863-41.087,23.994-61.55,2.044-5.145,1.562-9.327-2.587-13.428A62.018,62.018,0,0,0,258.32-.692c-3.321,4.378-5.851,8.6-8.856,12.449-1.385,1.773-3.635,3.887-5.6,4.008-7.624.466-15.293.25-22.941.08-.592-.013-1.851-2.081-1.616-2.457C222.75,7.854,220.9,3.289,217-1c-3.361,0-6.722,0-10.68.308-2.92,3.262-6.036,5.884-7.434,9.226-6.829,16.325-13.407,32.764-19.6,49.339-1.782,4.769-4.247,6.316-9.146,6.212-25.9-.553-51.678.705-76.937,7C80.2,74.324,66.969,77.549,56.618,86.8A210.4,210.4,0,0,0,37.426,106.21,142.472,142.472,0,0,0,7,163.59c-2.369,9.04-4.02,18.268-6,27.41,0,10.352,0,20.7.3,31.814.468,3.074.436,5.426.835,7.7,5.263,30,17.184,57.1,37.192,80.075,22.586,25.938,50.662,43.511,84.421,51.326,7.34,1.7,14.831,2.739,22.253,4.083h27.528m-95.52-49.489A132.45,132.45,0,0,1,38.97,270.74q-20.622-39.5-14.1-83.748a131.239,131.239,0,0,1,24.763-60.467c1.914-2.572,3.56-3.325,6.076-1.269C66,133.659,78.1,138.4,90.843,140.8c16.379,3.075,32.979,5.024,49.531,7.077,3.606.448,3.664,1.139,2.286,4.032-2.131,4.473-3.779,9.175-5.7,13.751-5.31,12.638-10.531,25.317-16.088,37.847-1.18,2.66.108,2.344,1.677,2.5,10.2,1.02,20.384,2.674,30.6,2.9,12.021.266,24.076-.567,36.1-1.211,4.7-.251,7.287-3.043,9.02-7.738,6.362-17.239,13.334-34.253,19.95-51.4,1.641-4.254,4.3-6.638,8.89-7.509a95.618,95.618,0,0,0,32.725-12.632c7.993-4.951,7.8-5.256,13.074,2.378.093.134.111.318.2.457,17.518,27.455,25.583,57.11,22.084,89.855-1.751,16.377-5.8,31.977-13.169,46.55-16,31.644-40.607,54.271-73.725,67.029-23.807,9.171-48.494,10.962-73.664,6.455-20.609-3.69-39.2-11.892-56.625-24.628M69.246,105.783c1.719-1.5,3.2-3.671,5.2-4.392,9.311-3.353,18.592-7.107,28.213-9.194a279.625,279.625,0,0,1,35.3-4.979c9.1-.782,18.309-.227,27.469-.107.658.009,2,1.606,1.844,2-4.446,11.23-8.875,22.475-13.8,33.5-.739,1.655-3.925,3.175-5.94,3.126-6.422-.154-12.813-1.33-19.239-1.653a154.985,154.985,0,0,1-47.83-10.246c-4.1-1.568-7.546-4.838-11.213-8.051m110.581,83.541c-.975,2.275-1.658,4.749-3.027,6.755-.9,1.312-2.758,2.706-4.233,2.756-7.959.275-15.932.114-23.9.166-2.5.016-2.739-.866-1.707-2.978a138.449,138.449,0,0,0,5.848-13.037c1.12-3.055,2.95-4.066,5.965-4,4.812.1,9.629-.047,14.442.04,3.443.062,6.882.334,10.323.513-1.182,3.015-2.363,6.03-3.711,9.79M194.495,76.958c1.42-3.628,2.023-7.976,7.414-7.948,7.317.038,14.636.084,21.951-.039,3.182-.054,3.161,1.083,2.008,3.517a95.71,95.71,0,0,0-4.525,10.985c-1.267,3.846-3.476,5.69-7.636,5.573-6.48-.182-12.97-.02-19.456-.054-5.259-.027-5.214-.038-2.806-4.961,1.014-2.074,1.795-4.263,3.05-7.072m43.873-44.164c2.956-1.236,3.795-.4,2.468,2.532-1.9,4.195-4.063,8.293-5.622,12.61-1.1,3.044-2.873,4.056-5.914,4.1-7.945.1-15.888.442-23.834.55-.537.007-1.68-1.37-1.547-1.686a159.46,159.46,0,0,1,6.752-14.844,6.885,6.885,0,0,1,4.95-2.907c7.3-.348,14.618-.2,22.747-.351m-32.562,88.7a20.464,20.464,0,0,1-4.154,1.5q-12.469,1.682-24.981,3.021c-.4.042-1.578-1.75-1.365-2.25,2.058-4.844,4.186-9.672,6.641-14.322.746-1.412,2.533-3.161,3.9-3.212,8.3-.312,16.611-.219,24.916-.09.5.008,1.571,1.756,1.357,2.264-1.785,4.238-3.809,8.374-6.315,13.092m-15.658,25.5,7.356-.9c-1.172,2.327-2.385,4.635-3.5,6.989-.633,1.337-1.146,2.736-1.644,4.132-1.206,3.384-3.469,4.962-7.161,4.816-4.476-.177-8.965-.035-13.448-.035-10.958,0-11.093-.058-6.671-10.125a7.312,7.312,0,0,1,4.925-3.7C176.39,147.428,182.854,147.34,190.148,146.994Z" transform="translate(-1 1)" fill="#fff"/><path d="M1025,85.47c-2.76-3-5.24-5.979-8.34-7.987-7.39-4.789-17.476-2.484-23.522,4.932-4.8,5.891-4.2,17.25,1.246,23.443,5.58,6.347,15.636,8.086,22.526,3.48,2.81-1.876,5-4.668,7.78-7.19.31-5.5.31-10.854.31-16.677m-29.884,2.525c.28-.6.516-1.223.845-1.794,3.135-5.439,7.849-7.937,13.409-7.12,6,.882,11.45,5.785,12.52,11.282.96,4.9-2.31,12.78-6.36,15.344-3.33,2.109-12.66,1.8-15.738-.515C994.8,101.439,992.981,95.254,995.116,87.995Z" transform="translate(-1 1)" fill="#fff"/><path d="M858.393,179.766c-2.375-10.405-4.567-20.417-6.767-30.427-.826-3.758-2.864-5.656-7.019-5.4a140.886,140.886,0,0,1-14.489.022c-3.381-.142-3.91,1.1-3.022,4.1q9.373,31.637,18.578,63.322c1.484,5.081,2.871,10.19,4.292,15.289.178.636.108,1.415.456,1.92,4.408,6.4,10.994,2.367,16.539,3.3,3.2.54,4.479-1.643,5.21-4.69,3.01-12.542,6.385-25,9.378-37.543.683-2.858.19-5.981.632-8.923.155-1.037,1.487-1.9,2.281-2.839a11.659,11.659,0,0,1,1.475,2.771c3.014,13.7,5.612,27.5,9.023,41.1C897.555,232.119,898,232.007,908.681,232c8.309-.007,8.129-.094,10.361-8.024q10.484-37.254,21.293-74.416c1.63-5.612,1.875-5.545-4-5.554-3.832-.006-7.685.253-11.49-.064-4.609-.383-6.563,1.622-7.389,6-2.69,14.275-5.624,28.505-8.542,42.737a10.408,10.408,0,0,1-1.578,2.774c-.748-.972-2.143-1.941-2.148-2.918-.082-14.695-6.7-27.927-9.256-42.052-.824-4.557-3.047-6.766-8.133-6.577-14.2.528-12.429-2.167-16.182,12.747-2.179,8.66-4.715,17.231-6.835,25.9-.7,2.855-.408,5.94-.947,8.85-.24,1.295-1.415,2.416-2.166,3.617a14.961,14.961,0,0,1-1.619-3.563C859.425,187.717,859.048,183.93,858.393,179.766Z" transform="translate(-1 1)" fill="#fff"/><path d="M725.962,177.536c-2.588-10.609-5.185-20.623-13.746-27.938-8.334-7.12-24.9-12.032-35.772-1.512a11.5,11.5,0,0,1-1.529,1.07,9.145,9.145,0,0,1-.86-2.66c.02-11.654.127-23.309.181-34.963a18.672,18.672,0,0,0-.344-2.6,8.053,8.053,0,0,0-1.761.541c-5.851,3.4-11.569,7.042-17.563,10.158-3.24,1.684-4.613,3.765-4.6,7.38q.115,49.731-.015,99.462c-.013,4.057,1.287,5.783,5.469,5.571,4.819-.245,9.661-.022,14.491-.086,2.023-.027,4.24.008,3.586-3.229-.041-.2,2.2-1.321,2.464-1.065,15.3,14.745,42.553,2.843,47.711-20.075,2.15-9.557,1.62-19.718,2.293-30.056m-26.018-4.647a50.8,50.8,0,0,1,1.549,27.242c-1.214,5.762-4.066,9.9-9.946,10.993a16.46,16.46,0,0,1-14.994-4.249,8.829,8.829,0,0,1-2.433-5.565c-.25-8.971-.365-17.965.058-26.923a10.327,10.327,0,0,1,3.582-7.049C686,161.373,694.3,163.429,699.944,172.889Z" transform="translate(-1 1)" fill="#fff"/><path d="M553,160c0,22.167.132,43.834-.1,65.5-.053,5.005,1.445,7.036,6.54,6.562a61.008,61.008,0,0,1,10.988,0c4.952.44,6.755-1.289,6.664-6.443-.281-15.828-.136-31.664-.077-47.5.024-6.416,2.982-11.251,7.6-12.848,7.181-2.485,14.252-1.505,17.621,3.819a25.908,25.908,0,0,1,3.6,12.562c.433,14.153.161,28.328.169,42.495,0,7.839.014,7.843,8.083,7.85,3.5,0,7-.068,10.5,0,2.808.052,4.4-.946,4.4-4.021-.037-18.833,1.416-37.8-.385-56.464-2.273-23.542-22.314-34.594-42.121-27.379-3.151,1.147-5.8,3.667-8.7,5.526a14.176,14.176,0,0,1-1.706.808,6.342,6.342,0,0,1-.38-1.636c.414-10.764.886-21.526,1.285-32.291.093-2.525-.039-5.058-.067-7.588a70.608,70.608,0,0,1-5.957,4c-4.237,2.286-8.5,4.561-12.919,6.46-3.735,1.605-5.17,4.05-5.1,8.094C553.132,138.164,553,148.833,553,160Z" transform="translate(-1 1)" fill="#fff"/><path d="M740,188.979c-.188,18.349,6.787,32.415,22.826,40.844a36.7,36.7,0,0,0,48.787-14.352c10.914-19.187,10.817-38.741-1.644-57.216a36.589,36.589,0,0,0-56.222-5.635c-10.148,10.024-14.42,21.9-13.747,36.359m24.4-10.789c.23-.962.421-1.936.7-2.885,1.6-5.525,6.9-10.027,12.073-10.292,7.476-.384,13.167,2.641,15.484,8.421,3.4,8.49,3.343,17.269.986,25.88-2.434,8.89-8.226,12.48-17.154,11.656-6.14-.566-11.826-6.949-12.4-14.776C763.68,190.49,764.1,184.726,764.406,178.19Z" transform="translate(-1 1)" fill="#fff"/><path d="M487.833,171.149c-2.495-5.188-1.96-6.718,3.2-8.219,8.784-2.552,17.091.05,25.111,3.229,7.065,2.8,6.943,3.114,9.756-3.877.742-1.843,1.393-3.726,2.211-5.534,2.466-5.45,2.3-6.374-3.055-8.668-14.584-6.247-29.489-8.565-44.949-3.222-9.229,3.19-15.265,9.482-16.916,19-1.834,10.573,1.522,19.862,11.2,25.075,7.783,4.192,16.428,6.784,24.7,10.065,2.453.974,5.306,1.4,7.288,2.96,1.7,1.33,3.466,4.037,3.251,5.91-.212,1.845-2.762,4.7-4.489,4.858a75.981,75.981,0,0,1-17.631-.221c-4.991-.728-9.872-2.7-14.6-4.622-3.422-1.4-5.383-.7-6.628,2.622a28.432,28.432,0,0,1-1.231,3.243c-5.737,10.971-3.943,11.142,6.857,15.247,14.255,5.418,28.847,7.251,43.677,1.972,17.285-6.154,23.667-26.434,11.785-40.389-4.138-4.859-11.068-7.627-17.129-10.489C503.1,176.713,495.5,174.266,487.833,171.149Z" transform="translate(-1 1)" fill="#fff"/><path d="M362,216.977c0,15.033,0,15.033,14.383,15.021,1.166,0,2.341-.1,3.495.008,3.985.382,5.191-1.542,5.162-5.32-.121-15.817-.047-31.634-.044-47.452q0-2.5,0-4.994c.009-8.186.01-8.186,8.176-8.243,6.763-.047,6.784-.057,6.817-6.6.018-3.663-.1-7.328.009-10.988.091-3.218-1.379-4.6-4.519-4.4a7.3,7.3,0,0,1-1.993-.03c-2.746-.6-7.5-.778-7.809-2.024-.75-3.048-.581-7.83,1.347-9.621,2.087-1.938,7.475-2.817,9.863-1.444,5.927,3.409,5.238.116,5.127-3.692-.1-3.327.259-6.7-.156-9.974-.218-1.722-1.272-4.192-2.618-4.773-6.348-2.742-23.426-3.109-29.943,2.752-4.844,4.356-7.468,9.614-7.306,16.194.057,2.33-.148,4.674.036,6.99.314,3.961-1.061,6.115-5.331,5.6-4.342-.518-6.066,1.364-5.747,5.723a86.54,86.54,0,0,1,.015,10.982c-.205,3.8,1.19,5.765,5.151,5.278,4.674-.574,6.024,1.554,5.96,6.047C361.867,186.843,362,201.663,362,216.977Z" transform="translate(-1 1)" fill="#fff"/><path d="M981,109.058c-6.921,3.8-13.937,7.449-20.681,11.543-1.311.8-2.2,3.332-2.212,5.069-.127,33.809-.061,67.619-.139,101.429-.008,3.7,1.473,5.062,5.067,4.929,4.658-.173,9.358.249,13.97-.243,1.436-.153,3.014-2.243,3.839-3.81.621-1.177.152-2.934.153-4.433q0-49.965.008-99.929c0-4.638.1-9.275.053-14.249C980.96,109.027,981,109.058,981,109.058Z" transform="translate(-1 1)" fill="#fff"/><path d="M418,212.995c.007,5.16.093,9.823-.008,14.481-.067,3.138,1.2,4.6,4.416,4.526q6.987-.154,13.981,0c3.072.068,4.616-1.048,4.61-4.33q-.075-39.7,0-79.4c.006-3.324-1.63-4.346-4.66-4.279-4.326.1-8.666.209-12.98-.038-4.236-.243-5.436,1.62-5.412,5.617C418.075,170.547,418,191.522,418,212.995Z" transform="translate(-1 1)" fill="#fff"/><path d="M879.942,325c.352-10.79.808-21.579.995-32.373.06-3.447-.69-6.9-.868-10.363-.05-.986.611-2.008.946-3.013a11.751,11.751,0,0,1,2.016,1.972c8.021,12.916,15.982,25.869,24,38.786.862,1.388,1.759,3.057,3.084,3.775a7.689,7.689,0,0,0,5.132.7c.834-.213,1.646-2.384,1.655-3.677.112-16.163.063-32.326.086-48.49,0-2.477-.714-4.774-3.517-4.034a5.635,5.635,0,0,0-3.3,4.19c.034,12.453.479,24.9.715,37.359a15.687,15.687,0,0,1-.819,3.67c-.864-.552-2.06-.9-2.541-1.687-6.991-11.416-13.874-22.9-20.814-34.346-1.372-2.264-2.516-4.85-4.422-6.551-1.611-1.438-4.173-1.809-6.315-2.652-.656,1.717-1.861,3.427-1.883,5.151-.162,13-.075,25.994-.113,38.991a28.923,28.923,0,0,1-.439,5.448c-1.2,6.156-.608,6.966,6.028,7.112C879.973,324.96,879.942,325,879.942,325Z" transform="translate(-1 1)" fill="#fff"/><path d="M438.29,279.479c-7.291,13.164-5.13,31.563,5.5,40.993,9.272,8.229,24.232,7.547,32.38-2.508,9.027-11.141,10.477-23.875,4.212-37.183-8.3-17.641-31.748-18.628-40.967-2.793-.248.425-.622.778-1.121,1.491m5.106,29.29a32.39,32.39,0,0,1-.292-23.741c4.137-11.128,16.772-15.62,25.3-9.087,10.834,8.3,10.706,29.624,2.671,38.392C464.182,321.853,450.171,323.187,443.4,308.769Z" transform="translate(-1 1)" fill="#fff"/><path d="M836.905,287.458c-2.782-9.192-7.4-16.359-16.614-19.475a23.472,23.472,0,0,0-27.275,10c-7.07,11.486-7.016,29.49,1.706,39.664,9.133,10.654,25.372,11.728,35.14.408,7.476-8.663,9.676-18.961,7.043-30.6m-8.293-3.215a35.306,35.306,0,0,1,1.249,20.451c-1.871,7.383-5.915,12.791-13.75,14.758-6.87,1.724-12.152-.927-16.141-6.1-6.312-8.189-5.968-17.559-3.58-26.971,1.686-6.646,8.357-12.774,13.948-13.345C818.484,272.2,824.266,275.615,828.612,284.243Z" transform="translate(-1 1)" fill="#fff"/><path d="M610.944,326c13.224.573,20.646-9.539,21.042-20.731q.563-15.918.975-31.842c.055-2.222.582-4.929-2.915-5.316-3.63-.4-4.088,2-4.164,4.712-.3,10.776-.672,21.551-.861,32.329-.213,12.134-10.375,18.42-21.338,13.118-6.407-3.1-7.354-9.137-7.577-15.1-.371-9.974-.111-19.972-.115-29.96,0-2.582.119-5.227-3.668-5.119-3.481.1-3.3,2.608-3.307,4.973-.013,10.654-.4,21.327.1,31.957C589.674,316.94,597.086,326.817,610.944,326Z" transform="translate(-1 1)" fill="#fff"/><path d="M372.38,324.964c9.381,2.351,17.545,1.334,24.061-5.94,5.952-6.645,4.806-16.253-2.777-21.065-3.734-2.37-7.929-4.031-11.973-5.887-2.1-.963-4.35-1.585-6.483-2.479-4.607-1.932-5.835-5.719-5.047-10.219.753-4.3,4.315-6.154,7.985-6.15,3.98.005,7.971,1.371,11.932,2.257,1.427.319,2.862,1.522,4.15,1.334,2.029-.3,3.936-1.426,5.895-2.2-1.246-.979-2.43-2.055-3.749-2.923-9.066-5.969-18.388-7.372-27.8-.928-8.635,5.914-8.621,17.113.289,22.563,4.732,2.895,10.207,4.569,15.328,6.837,4.169,1.846,8.174,3.83,8.785,9.164,1,8.731-7.252,11.321-14.922,10.361-3.446-.431-6.619-2.78-10.016-3.972-1.685-.592-3.842-1.192-5.354-.63-2.655.988-3.708,2.961-.327,4.768C365.55,321.555,368.768,323.207,372.38,324.964Z" transform="translate(-1 1)" fill="#fff"/><path d="M973.053,298.906a57.511,57.511,0,0,1,7.544,3.506c3.582,2.247,5.569,5.95,4.106,9.807a12.815,12.815,0,0,1-6.384,6.6c-6.669,2.773-12.906.7-18.585-3.5-1.1-.817-2.758-.891-4.158-1.308-.034,2.218-.97,5.768.036,6.449,9.732,6.581,20.705,8.715,31,.959,8.432-6.355,9.275-17.888-2.187-24.521-4.841-2.8-10.306-4.5-15.383-6.924-5.921-2.826-7.928-5.991-6.837-10.117,1.144-4.327,5.177-7.157,10.843-6.736,3.169.235,6.236,1.707,9.375,2.518,1.874.484,3.922,1.35,5.669.982,1.85-.39,3.77-1.859,1.591-4.364-7.363-8.466-27.422-6.5-32.858,3.252-4.449,7.981-1.008,16.332,8.46,20.413C967.712,296.968,970.211,297.859,973.053,298.906Z" transform="translate(-1 1)" fill="#fff"/><path d="M694.427,274.11c3.949-.085,7.477.161,10.911-.3,1.279-.17,2.339-1.985,3.5-3.051-1.153-.9-2.293-2.579-3.461-2.6q-17.449-.291-34.9.013c-1.119.019-2.206,1.784-3.308,2.739,1.211,1.016,2.311,2.683,3.657,2.913a34.054,34.054,0,0,0,8.45.13c3.811-.315,4.826,1.358,4.787,4.947-.15,13.63-.064,27.263-.036,40.895.005,2.3-.342,4.891,3.154,5.1,3.274.2,3.773-1.8,3.83-4.455.29-13.592.587-27.186,1.077-40.772C692.149,277.818,693.313,276,694.427,274.11Z" transform="translate(-1 1)" fill="#fff"/><path d="M538,325c4.82,0,9.164.231,13.453-.145,1.529-.134,2.927-1.755,4.385-2.7-1.52-1.047-2.983-2.882-4.571-3-5.292-.385-10.629-.152-15.949-.158-8.306-.008-8.313-.009-8.317-8.08-.007-12.3.035-24.6-.038-36.906-.015-2.471.91-5.771-3.321-5.9-4.207-.133-3.613,3.039-3.618,5.621-.034,15.128.13,30.259-.1,45.383-.073,4.677,1.628,6.259,6.116,5.936C529.839,324.777,533.678,325,538,325Z" transform="translate(-1 1)" fill="#fff"/><path d="M426.924,111.022c-6.29,1.795-10.369,5.371-10.839,11.79-.428,5.849,2.51,10.084,7.5,12.941,4.68,2.681,10.666,1.557,14.887-2.733,5.017-5.1,5.883-9.266,2.6-14.643C437.979,113.311,433.9,109.69,426.924,111.022Z" transform="translate(-1 1)" fill="#fff"/><path d="M752,281.013c-.009-3.31.413-6.23-.193-8.918a6.165,6.165,0,0,0-3.672-3.874c-2.815-.78-4.137,1.046-4.129,3.977.047,16.275-.053,32.55.171,48.821.018,1.311,2.1,2.594,3.218,3.889,1.189-1.224,2.757-2.269,3.451-3.729.581-1.224.116-2.934.158-4.428C751.328,305,751.665,293.25,752,281.013Z" transform="translate(-1 1)" fill="#fff"/><path d="M42.029,206.667c-.529,29,9.028,53.877,26.945,75.941,17.557,21.62,40.235,35.4,67.006,40.916,35.758,7.364,68.758-.486,97.58-23.566,23.629-18.92,37.8-43.53,43.477-73.15.484-2.525.88-5.066,1.317-7.6-2.36,1.322-4.584,3.048-7.1,3.9-10.622,3.577-21.141,7.833-32.061,10.067-13.88,2.84-28.106,4.013-42.2,5.777-2.4.3-5.809.479-5.371-3.069.183-1.486,3.4-3.572,5.362-3.715,22.542-1.634,44.685-5.183,65.937-13.126a51.286,51.286,0,0,0,11.348-6.018c5.593-3.92,6.253-8.753.825-13.073-5.583-4.444-12.009-8.488-18.727-10.7-11.731-3.866-23.949-6.277-36-9.125-4.2-.991-6.875.892-8.335,5.063-2.515,7.182-5.381,14.24-8.025,21.378-1.433,3.867-3.641,5.852-8.158,6.679-15.969,2.921-32.051,3.327-48.116,2.575-10.36-.484-20.645-2.6-30.955-4.058-4.056-.572-5.161-2.693-3.4-6.524,3.928-8.543,7.706-17.155,11.52-25.75a9.448,9.448,0,0,0,.413-1.8,9,9,0,0,0-2.8-.548c-4.085.546-8.13,1.4-12.22,1.882-16.637,1.977-33.1,4.972-48.685,11.17-6,2.385-11.286,6.7-16.6,10.537C43.482,201.826,43,204.356,42.029,206.667Z" transform="translate(-1 1)" fill="#5987c5"/><path d="M1000.04,97.771a9.077,9.077,0,0,0,1.03,3.142,19.367,19.367,0,0,0,2.8,2.536c.37-1.161.76-2.318,1.12-3.485.4-1.3.76-2.6,1.14-3.905,1.15,1.021,2.37,1.971,3.42,3.084.89.946,1.43,2.279,2.43,3.054a3.421,3.421,0,0,0,2.67.182c.3-.085.62-1.62.31-2.11-2.09-3.348-1.53-6.026.65-9.367a4.486,4.486,0,0,0-2.85-6.8c-3.4-.753-7.41-1.258-10.45-.07-1.54.6-1.65,5.158-2.14,7.973a37.258,37.258,0,0,0-.13,5.764m5.4-7.612c-.93-3.235,1.3-3.324,3.32-3.009,1.02.158,1.88,1.3,2.8,2-1.36.594-2.69,1.246-4.09,1.747C1007.07,91.043,1006.52,90.753,1005.44,90.16Z" transform="translate(-1 1)" fill="#fff"/></g></g></svg>