<svg xmlns="http://www.w3.org/2000/svg" width="256.563" height="61" viewBox="0 0 256.563 61"><g transform="translate(-139.437 -153)"><g transform="translate(52 19)"><text transform="translate(145 179)" fill="#0089f7" font-size="45" font-family="Nunito-Bold, Nunito" font-weight="700" letter-spacing="0.036em"><tspan x="0" y="0">OCE</tspan></text><text transform="translate(244 179)" fill="#fff" font-size="45" font-family="Nunito-Regular, Nunito" letter-spacing="0.036em"><tspan x="0" y="0">Now</tspan></text></g><g transform="translate(-168.428 -120.6)"><g transform="translate(307.865 284.6)"><g transform="translate(0 0)"><g transform="translate(46.779 0) rotate(90)"><path d="M19.763,0A13.365,13.365,0,0,1,31.3,6.611l5.871,10.024a13.365,13.365,0,0,1,0,13.51L31.3,40.168a13.365,13.365,0,0,1-11.533,6.611h-.526A13.365,13.365,0,0,1,7.7,40.168L1.833,30.144a13.365,13.365,0,0,1,0-13.51L7.7,6.611A13.365,13.365,0,0,1,19.237,0Z" transform="translate(0 0)" fill="none"/><path d="M19.763,3.237h-.527a10.166,10.166,0,0,0-8.74,5.01L4.625,18.27a10.14,10.14,0,0,0,0,10.238L10.5,38.532a10.165,10.165,0,0,0,8.74,5.01h.527a10.165,10.165,0,0,0,8.74-5.01l5.871-10.024a10.14,10.14,0,0,0,0-10.238L28.5,8.246a10.166,10.166,0,0,0-8.74-5.01m0-3.237A13.365,13.365,0,0,1,31.3,6.61l5.871,10.024a13.365,13.365,0,0,1,0,13.51L31.3,40.168a13.365,13.365,0,0,1-11.533,6.61h-.527A13.365,13.365,0,0,1,7.7,40.168L1.833,30.144a13.365,13.365,0,0,1,0-13.51L7.7,6.61A13.365,13.365,0,0,1,19.237,0Z" transform="translate(0 0)" fill="#0089f7"/></g><rect width="3.641" height="11.328" rx="1.821" transform="translate(15.833 13.108)" fill="#0089f7"/><rect width="2.832" height="11.328" rx="1.416" transform="translate(28.374 13.108)" fill="#0089f7"/></g></g></g></g></svg>